:SAMPLES-PER-SECOND 30
:FULLY-SPECIFIED
:DEGREES
489
root  -38.0322 37.4332 -25.4503 -134.359 -87.4279 159.492
RightUpLeg  -64.8777 -23.8248 19.8723
RightLeg  27.8157 4.24216 2.19348
RightFoot  7.93501 1.57781 -8.93408
RightToes  0.00048216 0.542163 -0.142577
Spine  66.1717 -4.61404 7.96257
Spine1  13.1092 1.58023 -4.57676
HEad  -24.2754 -3.5578 -2.21838
LeftShoulder1  5.90974 -26.3708 -12.5771
LeftArm  -76.894 -73.1057 29.028
LeftForeArm  15.9992 0.218625 -1.34572
LeftHand  -0.25398 0.0180481 5.50724
RightShoulder  2.45834 14.7993 5.67211
RightArm  -55.9961 57.9288 -15.0995
RightForeArm  -5.41821 -6.06871 1.92756
RightHand  -8.76011 20.5459 -38.2004
LeftUpLeg  -57.9935 17.0701 -12.9088
LeftLeg  40.7587 -0.209587 0.190718
LeftFoot  -8.52383 -0.111976 6.61954
LeftToes  1.06244e-005 4.65856e-005 -8.18505e-006
490
root  -37.4167 37.5578 -24.824 -138.735 -87.1146 160.521
RightUpLeg  -61.1224 -24.9392 17.769
RightLeg  25.2951 4.22362 1.9064
RightFoot  10.6027 1.69066 -8.33395
RightToes  0.00048216 0.542163 -0.142577
Spine  65.2732 -4.87641 7.94428
Spine1  13.7255 1.33521 -4.5501
HEad  -23.6465 -3.34192 -2.71297
LeftShoulder1  6.96323 -26.0666 -16.6809
LeftArm  -59.8519 -72.196 11.7225
LeftForeArm  16.8104 0.615127 -2.13118
LeftHand  -0.25398 0.0180481 5.50724
RightShoulder  3.14678 15.8738 8.82199
RightArm  -44.6662 55.0563 -5.6531
RightForeArm  -1.93522 -6.18915 3.13446
RightHand  -8.63819 20.4821 -37.7675
LeftUpLeg  -54.5612 16.5864 -12.9185
LeftLeg  39.3658 1.12079 1.36598
LeftFoot  -7.43645 -0.229433 8.02757
LeftToes  1.06244e-005 4.65856e-005 -8.18505e-006
491
root  -36.8309 37.7394 -24.1715 -143.19 -86.629 161.666
RightUpLeg  -56.7382 -26.08 15.332
RightLeg  22.1562 5.26935 2.26071
RightFoot  13.0265 1.39738 -6.0708
RightToes  0.00048216 0.542163 -0.142577
Spine  63.984 -5.05913 7.7891
Spine1  14.5406 1.18112 -4.776
HEad  -23.169 -3.15767 -3.50783
LeftShoulder1  7.83249 -25.6526 -20.2478
LeftArm  -43.9271 -68.6325 -3.75099
LeftForeArm  17.2635 0.977495 -3.01031
LeftHand  -0.25398 0.0180481 5.50724
RightShoulder  3.91968 16.3224 12.7457
RightArm  -35.2755 50.9441 2.53545
RightForeArm  -2.22579 -5.25476 4.42569
RightHand  -7.44742 18.6093 -35.3087
LeftUpLeg  -50.9499 16.8599 -13.316
LeftLeg  37.4143 1.80963 1.85977
LeftFoot  -5.91122 -0.411378 9.3976
LeftToes  1.06244e-005 4.65856e-005 -8.18505e-006
492
root  -36.2781 38.0217 -23.5227 -149.944 -85.9976 165.477
RightUpLeg  -50.641 -25.4216 10.2475
RightLeg  18.1449 3.02273 2.96518
RightFoot  12.537 0.244654 -0.641904
RightToes  0.00048216 0.542163 -0.142577
Spine  62.4999 -4.86355 7.73585
Spine1  15.1049 1.36247 -4.62198
HEad  -22.9385 -3.35139 -4.79822
LeftShoulder1  8.62298 -25.1436 -23.6712
LeftArm  -31.8072 -62.9133 -15.5293
LeftForeArm  16.8724 1.14747 -3.86718
LeftHand  -0.25398 0.0180481 5.50724
RightShoulder  4.60416 16.1276 16.7858
RightArm  -27.533 45.5452 8.65737
RightForeArm  -5.28174 -3.15846 5.94634
RightHand  -6.00814 15.8658 -32.4033
LeftUpLeg  -47.2761 18.2662 -14.0432
LeftLeg  34.3929 1.53612 1.49995
LeftFoot  -4.0715 -0.674104 10.9524
LeftToes  1.06244e-005 4.65856e-005 -8.18505e-006
493
root  -35.7608 38.3947 -22.909 -157.162 -85.355 170.406
RightUpLeg  -42.8398 -21.1969 1.89329
RightLeg  13.0186 -7.43225 3.86506
RightFoot  8.43736 -0.882033 5.40347
RightToes  0.00048216 0.542163 -0.142577
Spine  61.165 -4.45111 7.63699
Spine1  14.7047 1.5549 -3.90321
HEad  -22.7585 -3.24327 -6.79914
LeftShoulder1  9.33219 -24.1302 -27.5514
LeftArm  -23.7471 -55.1105 -23.3879
LeftForeArm  16.657 0.447004 -4.58086
LeftHand  -0.25398 0.0180481 5.50724
RightShoulder  5.23688 15.8952 20.5769
RightArm  -21.549 39.1244 12.8106
RightForeArm  -9.04372 -0.932682 7.23179
RightHand  -4.82537 13.2124 -29.9095
LeftUpLeg  -43.743 20.3946 -14.9556
LeftLeg  30.1591 0.528479 0.687102
LeftFoot  -1.93751 -1.0234 12.5297
LeftToes  1.06244e-005 4.65856e-005 -8.18505e-006
494
root  -35.2795 38.7851 -22.3378 -164.842 -84.6095 176.351
RightUpLeg  -37.118 -18.2336 -2.6454
RightLeg  9.23387 -17.4553 4.48128
RightFoot  3.87885 -1.03061 7.79796
RightToes  0.00048216 0.542163 -0.142577
Spine  60.0885 -4.32335 7.09943
Spine1  13.6691 1.22856 -3.37119
HEad  -22.7196 -1.52678 -9.259
LeftShoulder1  9.71039 -21.9841 -31.9375
LeftArm  -18.705 -45.6039 -26.4944
LeftForeArm  16.8133 -1.51556 -5.42802
LeftHand  -0.25398 0.0180481 5.50724
RightShoulder  5.88516 16.3274 23.4458
RightArm  -17.6914 32.6752 16.4063
RightForeArm  -11.4056 1.10397 7.84269
RightHand  -3.99484 11.2011 -27.8731
LeftUpLeg  -40.4888 22.5548 -15.6457
LeftLeg  25.3523 -0.645854 0.0364589
LeftFoot  0.421469 -1.42593 13.7505
LeftToes  1.06244e-005 4.65856e-005 -8.18505e-006
495
root  -34.7885 39.1758 -21.7807 -176.393 -83.2859 -173.743
RightUpLeg  -35.4698 -21.6372 0.210222
RightLeg  11.3394 -15.5647 2.55546
RightFoot  1.76956 -0.760704 6.72591
RightToes  0.00048216 0.542163 -0.142577
Spine  57.7709 -3.97088 7.5035
Spine1  14.4122 1.73992 -3.44099
HEad  -22.9429 -0.515958 -11.2223
LeftShoulder1  10.4349 -21.2874 -35.9205
LeftArm  -15.6791 -35.9088 -26.1671
LeftForeArm  17.5652 -3.49148 -6.13336
LeftHand  -0.25398 0.0180481 5.50724
RightShoulder  6.41202 15.9519 26.8714
RightArm  -15.3119 26.8052 17.9442
RightForeArm  -12.0234 2.99648 8.18009
RightHand  -3.40619 9.78802 -26.0617
LeftUpLeg  -37.1656 24.5434 -15.1749
LeftLeg  20.4088 -1.26584 -0.28998
LeftFoot  2.9675 -1.85397 14.5438
LeftToes  1.06244e-005 4.65856e-005 -8.18505e-006
496
root  -34.2761 39.5267 -21.2474 172.616 -81.3105 -164.603
RightUpLeg  -35.9753 -27.1898 5.91982
RightLeg  19.1231 -4.8562 -1.66474
RightFoot  1.33329 -0.616266 5.63194
RightToes  0.00048216 0.542163 -0.142577
Spine  55.8798 -3.81036 8.20465
Spine1  14.4074 2.35733 -4.26358
HEad  -22.2302 1.10025 -12.9648
LeftShoulder1  11.1303 -20.4447 -40.1662
LeftArm  -12.3682 -25.6001 -23.4183
LeftForeArm  17.8701 -5.50735 -7.10639
LeftHand  -0.25398 0.0180481 5.50724
RightShoulder  6.92564 15.5263 30.3991
RightArm  -12.6448 21.3027 19.173
RightForeArm  -10.5314 4.41011 8.51416
RightHand  -2.96207 8.67519 -24.5229
LeftUpLeg  -32.8312 24.0268 -11.7641
LeftLeg  15.5714 1.57756 -1.15977
LeftFoot  5.46181 -2.29267 15.2008
LeftToes  1.06244e-005 4.65856e-005 -8.18505e-006
